<?xml version="1.0" encoding="UTF-8" standalone="no"?>
<!-- Created with Inkscape (http://www.inkscape.org/) -->

<svg
   xmlns:dc="http://purl.org/dc/elements/1.1/"
   xmlns:cc="http://creativecommons.org/ns#"
   xmlns:rdf="http://www.w3.org/1999/02/22-rdf-syntax-ns#"
   xmlns:svg="http://www.w3.org/2000/svg"
   xmlns="http://www.w3.org/2000/svg"
   xmlns:sodipodi="http://sodipodi.sourceforge.net/DTD/sodipodi-0.dtd"
   xmlns:inkscape="http://www.inkscape.org/namespaces/inkscape"
   width="257mm"
   height="71mm"
   viewBox="0 0 910.62994 251.57466"
   id="svg2"
   version="1.1"
   inkscape:version="0.91 r13725"
   sodipodi:docname="caes-logo-white.svg">
  <defs
     id="defs4" />
  <sodipodi:namedview
     id="base"
     pagecolor="#ffffff"
     bordercolor="#666666"
     borderopacity="1.0"
     inkscape:pageopacity="0.0"
     inkscape:pageshadow="2"
     inkscape:zoom="0.35"
     inkscape:cx="-110.71429"
     inkscape:cy="520"
     inkscape:document-units="px"
     inkscape:current-layer="layer1"
     showgrid="false"
     height="209mm"
     inkscape:window-width="2560"
     inkscape:window-height="1385"
     inkscape:window-x="1920"
     inkscape:window-y="27"
     inkscape:window-maximized="1" />
  <metadata
     id="metadata7">
    <rdf:RDF>
      <cc:Work
         rdf:about="">
        <dc:format>image/svg+xml</dc:format>
        <dc:type
           rdf:resource="http://purl.org/dc/dcmitype/StillImage" />
        <dc:title></dc:title>
      </cc:Work>
    </rdf:RDF>
  </metadata>
  <g
     inkscape:label="Layer 1"
     inkscape:groupmode="layer"
     id="layer1"
     transform="translate(0,-800.78781)">
    <g
       transform="matrix(1.25,0,0,-1.25,40.554205,1026.6658)"
       inkscape:label="ink_ext_XXXXXX"
       id="g3363">
      <g
         transform="scale(0.1,0.1)"
         id="g3365">
        <path
           inkscape:connector-curvature="0"
           id="path3367"
           style="fill:#ffffff;fill-opacity:1;fill-rule:nonzero;stroke:none"
           d="m 1481.75,1285.51 c 0,93.09 69.12,161.75 159.45,161.75 29.02,0 57.59,-9.22 76.49,-19.81 l 13.37,19.81 18.43,0 0,-109.21 -20.73,0 c -18.44,55.75 -48.85,89.4 -88.95,89.4 -47,0 -88.48,-45.63 -88.48,-134.56 0,-91.25 50.24,-135.02 98.62,-135.02 42.86,0 72.81,24.88 94.47,68.66 l 17.51,-8.3 c -21.2,-49.3 -62.67,-88.93 -128.57,-88.93 -95.85,0 -151.61,65.43 -151.61,156.21" />
        <path
           inkscape:connector-curvature="0"
           id="path3369"
           style="fill:#ffffff;fill-opacity:1;fill-rule:nonzero;stroke:none"
           d="m 1953.65,1243.58 c 0,63.59 -17.51,92.16 -51.61,92.16 -33.64,0 -47.93,-28.57 -47.93,-92.16 0,-64.05 17.98,-93.09 52.08,-93.09 33.17,0 47.46,29.04 47.46,93.09 z m -158.53,-0.92 c 0,66.82 42.4,111.05 109.22,111.05 68.66,0 108.29,-42.39 108.29,-109.21 0,-67.28 -41.93,-112.44 -108.29,-112.44 -69.59,0 -109.22,43.32 -109.22,110.6" />
        <path
           inkscape:connector-curvature="0"
           id="path3371"
           style="fill:#ffffff;fill-opacity:1;fill-rule:nonzero;stroke:none"
           d="m 2040.76,1153.26 c 26.26,0.46 32.25,5.07 32.25,16.13 l 0,245.61 c 0,13.83 -6.91,22.12 -34.1,22.58 l 0,16.59 88.95,3.69 0,-288.47 c 0,-11.06 5.52,-15.67 32.24,-16.13 l 0,-16.59 -119.34,0 0,16.59" />
        <path
           inkscape:connector-curvature="0"
           id="path3373"
           style="fill:#ffffff;fill-opacity:1;fill-rule:nonzero;stroke:none"
           d="m 2181.31,1153.26 c 26.26,0.46 32.25,5.07 32.25,16.13 l 0,245.61 c 0,13.83 -6.91,22.12 -34.1,22.58 l 0,16.59 88.94,3.69 0,-288.47 c 0,-11.06 5.53,-15.67 32.26,-16.13 l 0,-16.59 -119.35,0 0,16.59" />
        <path
           inkscape:connector-curvature="0"
           id="path3375"
           style="fill:#ffffff;fill-opacity:1;fill-rule:nonzero;stroke:none"
           d="m 2384.54,1262.01 82.02,1.38 c 4.61,39.63 -8.29,72.35 -37.79,72.35 -25.35,0 -41.01,-24.42 -44.23,-73.73 z m -58.53,-21.66 c 0,68.2 42.39,113.36 105.99,113.36 64.05,0 94.93,-50.69 91.25,-108.29 l -139.18,0 0,-2.76 c 0,-49.31 22.13,-83.41 65.45,-83.41 24.41,0 45.15,14.74 63.12,37.79 l 11.53,-9.68 c -19.36,-31.33 -46.09,-55.3 -92.17,-55.3 -68.21,0 -105.99,42.4 -105.99,108.29" />
        <path
           inkscape:connector-curvature="0"
           id="path3377"
           style="fill:#ffffff;fill-opacity:1;fill-rule:nonzero;stroke:none"
           d="m 2688.23,1280.9 c 0,34.1 -13.83,53.92 -37.8,53.92 -23.03,0 -33.63,-15.21 -33.63,-53.92 0,-39.16 14.28,-54.37 37.79,-54.37 22.57,0 33.64,15.21 33.64,54.37 z m 35.02,-181.55 c 0,17.51 -11.99,27.64 -66.82,27.64 l -38.25,0 c -19.35,-5.53 -30.87,-14.74 -30.87,-30.87 0,-20.28 22.58,-36.87 70.51,-36.87 39.63,0 65.43,16.59 65.43,40.1 z m -29.04,245.61 c 10.6,20.74 24.43,39.17 48.39,39.17 17.97,0 28.11,-10.6 28.11,-24.42 0,-11.53 -8.29,-21.66 -21.19,-21.66 -10.61,0 -20.28,7.83 -20.28,23.04 -9.22,-3.23 -17.52,-11.98 -22.13,-22.12 21.21,-11.52 34.57,-30.87 34.57,-57.15 0,-44.69 -37.33,-72.34 -88.94,-72.34 -8.75,0 -17.05,0.92 -25.34,2.3 -17.05,-6.45 -25.81,-12.44 -25.81,-20.73 0,-9.22 9.22,-16.59 49.76,-16.59 l 20.75,0 c 61.74,0 89.86,-17.05 89.86,-57.14 0,-39.18 -42.4,-75.12 -116.13,-75.12 -57.14,0 -95.4,21.2 -95.4,48.85 0,20.27 18.44,37.79 53.93,42.86 l 0,2.3 c -28.57,8.75 -37.79,21.2 -37.79,39.17 0,17.05 12.91,30.41 38.71,42.39 -25.35,10.61 -42.4,30.88 -42.4,62.21 0,44.24 37.79,71.89 89.86,71.89 14.75,0 29.03,-2.3 41.47,-6.91" />
        <path
           inkscape:connector-curvature="0"
           id="path3379"
           style="fill:#ffffff;fill-opacity:1;fill-rule:nonzero;stroke:none"
           d="m 2847.21,1262.01 82.03,1.38 c 4.61,39.63 -8.3,72.35 -37.79,72.35 -25.34,0 -41.02,-24.42 -44.24,-73.73 z m -58.51,-21.66 c 0,68.2 42.39,113.36 105.97,113.36 64.07,0 94.94,-50.69 91.25,-108.29 l -139.17,0 0,-2.76 c 0,-49.31 22.12,-83.41 65.44,-83.41 24.43,0 45.16,14.74 63.13,37.79 l 11.52,-9.68 c -19.35,-31.33 -46.07,-55.3 -92.17,-55.3 -68.19,0 -105.97,42.4 -105.97,108.29" />
        <path
           inkscape:connector-curvature="0"
           id="path3381"
           style="fill:#ffffff;fill-opacity:1;fill-rule:nonzero;stroke:none"
           d="m 3268.41,1243.58 c 0,63.59 -17.51,92.16 -51.61,92.16 -33.63,0 -47.93,-28.57 -47.93,-92.16 0,-64.05 17.98,-93.09 52.08,-93.09 33.18,0 47.46,29.04 47.46,93.09 z m -158.52,-0.92 c 0,66.82 42.4,111.05 109.22,111.05 68.66,0 108.29,-42.39 108.29,-109.21 0,-67.28 -41.94,-112.44 -108.29,-112.44 -69.59,0 -109.22,43.32 -109.22,110.6" />
        <path
           inkscape:connector-curvature="0"
           id="path3383"
           style="fill:#ffffff;fill-opacity:1;fill-rule:nonzero;stroke:none"
           d="m 3359.2,1153.26 c 26.27,0.46 32.27,5.07 32.27,16.13 l 0,152.99 -39.63,0 0,17.51 39.63,8.29 0,10.14 c 0,36.41 8.75,61.75 25.34,78.8 16.12,16.13 37.79,23.51 64.51,23.51 42.86,0 63.14,-18.9 63.14,-40.1 0,-17.51 -10.61,-29.95 -28.58,-29.95 -16.13,0 -29.95,10.14 -29.95,33.18 0,4.6 1.38,12.44 2.77,17.51 -4.14,1.84 -7.84,2.77 -11.53,2.77 -6.91,0 -12.44,-1.85 -17.97,-7.38 -8.3,-8.3 -12.9,-24.42 -12.9,-57.6 l 0,-31.8 58.06,0 0,-23.96 -58.06,0 0,-153.91 c 0,-11.06 8.76,-14.75 44.7,-16.13 l 0,-16.59 -131.8,0 0,16.59" />
        <path
           inkscape:connector-curvature="0"
           id="path3385"
           style="fill:#ffffff;fill-opacity:1;fill-rule:nonzero;stroke:none"
           d="m 3781.33,1267.08 -38.25,113.82 -3.23,0 -42.85,-113.82 84.33,0 z m 6.45,-19.35 -97.7,0 -15.66,-41.48 c -15.66,-40.09 -11.52,-46.08 26.27,-52.53 l 0,-17.05 -105.53,0 0,17.05 c 29.95,6.92 38.71,20.74 53.91,59.91 l 90.78,230.86 41.48,0 92.16,-256.67 c 7.37,-20.73 15.67,-28.57 48.39,-34.1 l 0,-17.05 -154.37,0 0,17.05 c 41.46,2.31 48.84,11.06 41.01,33.64 l -20.74,60.37" />
        <path
           inkscape:connector-curvature="0"
           id="path3387"
           style="fill:#ffffff;fill-opacity:1;fill-rule:nonzero;stroke:none"
           d="m 4062.44,1280.9 c 0,34.1 -13.82,53.92 -37.79,53.92 -23.04,0 -33.64,-15.21 -33.64,-53.92 0,-39.16 14.29,-54.37 37.78,-54.37 22.58,0 33.65,15.21 33.65,54.37 z m 35.03,-181.55 c 0,17.51 -12,27.64 -66.83,27.64 l -38.25,0 c -19.35,-5.53 -30.87,-14.74 -30.87,-30.87 0,-20.28 22.59,-36.87 70.51,-36.87 39.63,0 65.44,16.59 65.44,40.1 z m -29.05,245.61 c 10.61,20.74 24.44,39.17 48.4,39.17 17.97,0 28.11,-10.6 28.11,-24.42 0,-11.53 -8.3,-21.66 -21.2,-21.66 -10.6,0 -20.28,7.83 -20.28,23.04 -9.22,-3.23 -17.51,-11.98 -22.12,-22.12 21.19,-11.52 34.56,-30.87 34.56,-57.15 0,-44.69 -37.32,-72.34 -88.93,-72.34 -8.76,0 -17.05,0.92 -25.35,2.3 -17.05,-6.45 -25.8,-12.44 -25.8,-20.73 0,-9.22 9.21,-16.59 49.76,-16.59 l 20.74,0 c 61.75,0 89.86,-17.05 89.86,-57.14 0,-39.18 -42.4,-75.12 -116.13,-75.12 -57.14,0 -95.39,21.2 -95.39,48.85 0,20.27 18.44,37.79 53.92,42.86 l 0,2.3 c -28.56,8.75 -37.78,21.2 -37.78,39.17 0,17.05 12.9,30.41 38.71,42.39 -25.35,10.61 -42.4,30.88 -42.4,62.21 0,44.24 37.79,71.89 89.86,71.89 14.74,0 29.02,-2.3 41.46,-6.91" />
        <path
           inkscape:connector-curvature="0"
           id="path3389"
           style="fill:#ffffff;fill-opacity:1;fill-rule:nonzero;stroke:none"
           d="m 4156,1153.26 c 26.27,0.46 32.26,5.07 32.26,16.13 l 0,138.24 c 0,13.83 -5.99,22.12 -32.26,22.58 l 0,16.59 86.17,3.69 0,-37.33 c 16.14,20.74 37.79,38.71 62.21,38.71 26.27,0 39.17,-17.05 39.17,-36.87 0,-19.35 -12.44,-33.63 -29.95,-33.63 -18.9,0 -31.34,10.59 -31.34,27.65 0,2.3 0.46,5.98 0.93,8.75 -16.13,0.46 -31.35,-11.06 -40.1,-22.12 l 0,-126.26 c 0,-11.06 7.83,-15.21 40.55,-16.13 l 0,-16.59 -127.64,0 0,16.59" />
        <path
           inkscape:connector-curvature="0"
           id="path3391"
           style="fill:#ffffff;fill-opacity:1;fill-rule:nonzero;stroke:none"
           d="m 4387.34,1425.6 c 0,20.74 13.37,35.03 33.64,35.03 20.28,0 33.63,-13.37 33.63,-33.65 0,-20.73 -13.35,-34.56 -33.63,-34.56 -20.27,0 -33.64,12.44 -33.64,33.18 z m -26.26,-272.34 c 26.26,0.46 33.17,5.07 33.17,16.13 l 0,138.24 c 0,13.83 -6.45,22.12 -33.17,22.58 l 0,16.59 88.01,3.69 0,-181.1 c 0,-11.06 5.52,-15.67 32.25,-16.13 l 0,-16.59 -120.26,0 0,16.59" />
        <path
           inkscape:connector-curvature="0"
           id="path3393"
           style="fill:#ffffff;fill-opacity:1;fill-rule:nonzero;stroke:none"
           d="m 4507.62,1240.35 c 0,68.67 46.99,113.36 109.67,113.36 58.07,0 80.64,-29.49 80.64,-52.99 0,-18.9 -11.05,-32.72 -29.49,-32.72 -20.74,0 -31.34,11.98 -31.34,28.11 0,11.52 7.85,22.12 13.83,25.81 -4.61,7.37 -16.59,14.28 -31.79,14.28 -31.8,0 -53.46,-28.57 -53.46,-88.47 0,-51.15 22.59,-86.18 67.27,-86.18 23.51,0 43.32,12.44 58.99,31.8 l 11.52,-9.68 c -20.27,-30.87 -47,-51.61 -90.31,-51.61 -65.44,0 -105.53,43.32 -105.53,108.29" />
        <path
           inkscape:connector-curvature="0"
           id="path3395"
           style="fill:#ffffff;fill-opacity:1;fill-rule:nonzero;stroke:none"
           d="m 4753.7,1199.8 0,111.52 c 0,14.29 -5.99,19.81 -32.72,20.73 l 0,16.59 87.56,1.85 0,-136.4 c 0,-31.8 12.44,-44.24 38.24,-44.24 17.52,0 28.12,5.07 41.02,12.44 l 0,129.03 c 0,14.29 -7.37,19.36 -32.72,20.28 l 0,16.58 87.56,2.31 0,-180.18 c 0,-12.44 6.45,-16.13 32.72,-17.05 l 0,-16.59 -86.64,0 0,30.42 c -21.65,-19.36 -46.08,-34.11 -75.57,-34.11 -36.87,0 -59.45,23.97 -59.45,66.82" />
        <path
           inkscape:connector-curvature="0"
           id="path3397"
           style="fill:#ffffff;fill-opacity:1;fill-rule:nonzero;stroke:none"
           d="m 4995.18,1153.26 c 26.27,0.46 32.27,5.07 32.27,16.13 l 0,245.61 c 0,13.83 -6.92,22.12 -34.1,22.58 l 0,16.59 88.93,3.69 0,-288.47 c 0,-11.06 5.53,-15.67 32.26,-16.13 l 0,-16.59 -119.36,0 0,16.59" />
        <path
           inkscape:connector-curvature="0"
           id="path3399"
           style="fill:#ffffff;fill-opacity:1;fill-rule:nonzero;stroke:none"
           d="m 5170.3,1195.2 0,128.56 -39.63,0 0,17.51 40.56,8.3 0,57.6 53.91,17.97 0,-76.5 67.74,0 0,-23.96 -67.74,0 0,-126.72 c 0,-23.04 9.22,-35.03 26.72,-35.03 12.91,0 24.43,10.61 34.57,27.66 l 13.36,-8.76 c -16.13,-32.72 -37.32,-48.85 -70.51,-48.85 -34.55,0 -58.98,17.98 -58.98,62.22" />
        <path
           inkscape:connector-curvature="0"
           id="path3401"
           style="fill:#ffffff;fill-opacity:1;fill-rule:nonzero;stroke:none"
           d="m 5343.11,1199.8 0,111.52 c 0,14.29 -5.99,19.81 -32.71,20.73 l 0,16.59 87.55,1.85 0,-136.4 c 0,-31.8 12.45,-44.24 38.25,-44.24 17.52,0 28.11,5.07 41.01,12.44 l 0,129.03 c 0,14.29 -7.37,19.36 -32.71,20.28 l 0,16.58 87.56,2.31 0,-180.18 c 0,-12.44 6.44,-16.13 32.71,-17.05 l 0,-16.59 -86.64,0 0,30.42 c -21.65,-19.36 -46.07,-34.11 -75.57,-34.11 -36.86,0 -59.45,23.97 -59.45,66.82" />
        <path
           inkscape:connector-curvature="0"
           id="path3403"
           style="fill:#ffffff;fill-opacity:1;fill-rule:nonzero;stroke:none"
           d="m 5587.82,1153.26 c 26.27,0.46 32.26,5.07 32.26,16.13 l 0,138.24 c 0,13.83 -5.99,22.12 -32.26,22.58 l 0,16.59 86.17,3.69 0,-37.33 c 16.13,20.74 37.79,38.71 62.21,38.71 26.27,0 39.18,-17.05 39.18,-36.87 0,-19.35 -12.45,-33.63 -29.96,-33.63 -18.89,0 -31.33,10.59 -31.33,27.65 0,2.3 0.46,5.98 0.91,8.75 -16.13,0.46 -31.33,-11.06 -40.09,-22.12 l 0,-126.26 c 0,-11.06 7.84,-15.21 40.55,-16.13 l 0,-16.59 -127.64,0 0,16.59" />
        <path
           inkscape:connector-curvature="0"
           id="path3405"
           style="fill:#ffffff;fill-opacity:1;fill-rule:nonzero;stroke:none"
           d="m 5925.61,1185.05 0,59.45 c -53.46,-8.75 -69.59,-18.89 -69.59,-47 0,-20.28 11.06,-34.57 31.8,-34.57 15.67,0 29.49,10.61 37.79,22.12 z m -128.57,0.47 c 0,18.43 9.68,38.7 29.04,49.3 33.63,18.44 86.62,21.2 99.53,26.73 l 0,20.74 c 0,39.63 -12.44,51.61 -38.71,51.61 -10.6,0 -18.44,-2.77 -24.42,-7.38 3.23,-6.91 5.98,-14.28 5.98,-22.57 0,-17.06 -11.97,-29.96 -31.79,-29.96 -19.35,0 -29.95,12.45 -29.95,29.5 0,27.64 36.4,48.38 93.09,48.38 54.37,0 79.72,-24.88 79.72,-74.19 l 0,-94.47 c 0,-22.57 5.06,-27.18 32.71,-22.57 l 4.15,-12.91 c -17.05,-9.21 -31.34,-14.29 -48.39,-14.29 -28.11,0 -34.1,10.6 -39.63,32.72 l -1.84,0 c -18.44,-19.35 -42.39,-33.64 -69.12,-33.64 -42.4,0 -60.37,27.19 -60.37,53" />
        <path
           inkscape:connector-curvature="0"
           id="path3407"
           style="fill:#ffffff;fill-opacity:1;fill-rule:nonzero;stroke:none"
           d="m 6025.16,1153.26 c 26.26,0.46 32.25,5.07 32.25,16.13 l 0,245.61 c 0,13.83 -6.92,22.12 -34.1,22.58 l 0,16.59 88.94,3.69 0,-288.47 c 0,-11.06 5.53,-15.67 32.26,-16.13 l 0,-16.59 -119.35,0 0,16.59" />
        <path
           inkscape:connector-curvature="0"
           id="path3409"
           style="fill:#ffffff;fill-opacity:1;fill-rule:nonzero;stroke:none"
           d="m 6426.07,1368.46 c 0,24.88 -11.98,40.56 -35.03,40.56 -17.05,0 -32.25,-15.22 -32.25,-38.72 0,-20.27 11.98,-36.86 35.48,-59.44 24.43,17.97 31.8,34.1 31.8,57.6 z m -103.22,-151.14 c 0,-34.11 22.12,-56.68 54.37,-56.68 20.73,0 35.95,9.21 52.53,27.18 -18.43,29.95 -44.24,61.29 -73.73,87.09 -23.04,-15.2 -33.17,-32.71 -33.17,-57.59 z m 212.9,84.32 c 24.88,0 38.24,-16.59 38.24,-35.02 0,-16.59 -11.98,-29.96 -29.49,-29.96 -16.14,0 -28.58,12.91 -28.58,27.2 0,2.76 0.47,5.07 1.85,7.37 l -1.85,2.3 c -14.27,-8.75 -28.56,-28.57 -41.46,-53.91 22.58,-41.94 37.78,-57.14 55.29,-57.14 13.83,0 20.27,3.68 34.1,15.2 l 10.14,-13.82 c -27.65,-24.88 -47.46,-34.56 -68.2,-34.56 -35.94,0 -50.69,14.74 -67.28,43.77 -21.2,-26.26 -48.39,-43.77 -82.95,-43.77 -64.05,0 -90.78,36.86 -90.78,72.81 0,40.55 29.95,67.73 79.27,83.4 -21.66,24.88 -34.57,41.48 -34.57,66.83 0,43.77 37.79,74.64 87.1,74.64 48.39,0 74.19,-28.11 74.19,-58.06 0,-29.49 -19.82,-49.31 -64.52,-68.66 22.58,-19.81 42.86,-41.94 57.6,-65.44 20.74,40.56 44.71,66.82 71.9,66.82" />
        <path
           inkscape:connector-curvature="0"
           id="path3411"
           style="fill:#ffffff;fill-opacity:1;fill-rule:nonzero;stroke:none"
           d="m 1479.45,678.398 c 36.4,1.383 43.31,5.528 43.31,19.817 l 0,228.098 c 0,14.289 -6.91,18.433 -43.31,19.82 l 0,17.512 257.6,0 2.76,-96.774 -19.36,-0.461 c -17.05,51.613 -29.95,77.875 -83.86,77.875 l -50.24,0 0,-118.89 17.05,0 c 31.8,0 43.32,3.687 57.15,48.39 l 16.58,0 0,-117.051 -16.58,0 c -13.83,44.704 -25.35,48.848 -57.15,48.848 l -17.05,0 0,-124.879 47.93,0 c 64.06,0 80.65,29.953 99.08,86.172 l 19.81,-0.465 -3.68,-105.984 -270.04,0 0,17.972" />
        <path
           inkscape:connector-curvature="0"
           id="path3413"
           style="fill:#ffffff;fill-opacity:1;fill-rule:nonzero;stroke:none"
           d="m 1789.13,677.012 c 26.27,0.465 32.26,5.074 32.26,16.133 l 0,138.242 c 0,13.824 -5.99,22.121 -32.26,22.578 l 0,16.594 86.18,3.683 0,-34.101 c 23.5,18.433 51.61,35.484 81.56,35.484 36.41,0 54.38,-23.5 54.38,-66.355 l 0,-116.125 c 0,-11.059 5.53,-15.668 32.25,-16.133 l 0,-16.586 -113.36,0 0,16.586 c 19.82,0.465 26.27,5.074 26.27,16.133 l 0,102.3 c 0,31.797 -11.06,44.239 -35.49,44.239 -17.51,0 -32.25,-7.375 -44.69,-15.211 l 0,-131.328 c 0,-11.059 6.45,-15.668 25.81,-16.133 l 0,-16.586 -112.91,0 0,16.586" />
        <path
           inkscape:connector-curvature="0"
           id="path3415"
           style="fill:#ffffff;fill-opacity:1;fill-rule:nonzero;stroke:none"
           d="m 2076.7,828.621 c -8.3,19.817 -14.28,25.344 -35.94,28.57 l 0,16.129 118.42,0 0,-16.129 c -20.27,-1.839 -28.57,-5.992 -28.57,-14.746 0,-2.304 0.47,-4.609 1.86,-8.293 l 46.99,-122.574 1.84,0 38.71,99.996 c 4.16,11.059 5.99,18.43 5.99,24.422 0,11.52 -7.36,18.434 -27.19,21.195 l 0,16.129 87.1,0 0,-16.129 c -14.28,-1.839 -26.27,-11.515 -34.56,-31.796 l -70.05,-167.735 -35.94,0 -68.66,170.961" />
        <path
           inkscape:connector-curvature="0"
           id="path3417"
           style="fill:#ffffff;fill-opacity:1;fill-rule:nonzero;stroke:none"
           d="m 2321.41,949.355 c 0,20.739 13.36,35.024 33.63,35.024 20.28,0 33.65,-13.363 33.65,-33.641 0,-20.738 -13.37,-34.562 -33.65,-34.562 -20.27,0 -33.63,12.441 -33.63,33.179 z m -26.27,-272.343 c 26.27,0.465 33.19,5.074 33.19,16.133 l 0,138.242 c 0,13.824 -6.47,22.121 -33.19,22.578 l 0,16.594 88.01,3.683 0,-181.097 c 0,-11.059 5.54,-15.668 32.27,-16.133 l 0,-16.586 -120.28,0 0,16.586" />
        <path
           inkscape:connector-curvature="0"
           id="path3419"
           style="fill:#ffffff;fill-opacity:1;fill-rule:nonzero;stroke:none"
           d="m 2440.77,677.012 c 26.27,0.465 32.25,5.074 32.25,16.133 l 0,138.242 c 0,13.824 -5.98,22.121 -32.25,22.578 l 0,16.594 86.17,3.683 0,-37.324 c 16.13,20.738 37.78,38.707 62.21,38.707 26.27,0 39.17,-17.051 39.17,-36.863 0,-19.356 -12.45,-33.641 -29.96,-33.641 -18.89,0 -31.33,10.598 -31.33,27.649 0,2.304 0.46,5.992 0.92,8.753 -16.13,0.465 -31.34,-11.058 -40.09,-22.117 l 0,-126.261 c 0,-11.059 7.83,-15.211 40.54,-16.133 l 0,-16.586 -127.63,0 0,16.586" />
        <path
           inkscape:connector-curvature="0"
           id="path3421"
           style="fill:#ffffff;fill-opacity:1;fill-rule:nonzero;stroke:none"
           d="m 2806.2,767.336 c 0,63.594 -17.51,92.16 -51.61,92.16 -33.65,0 -47.92,-28.566 -47.92,-92.16 0,-64.055 17.96,-93.09 52.07,-93.09 33.17,0 47.46,29.035 47.46,93.09 z m -158.52,-0.926 c 0,66.824 42.39,111.063 109.21,111.063 68.66,0 108.29,-42.399 108.29,-109.215 0,-67.281 -41.93,-112.442 -108.29,-112.442 -69.58,0 -109.21,43.317 -109.21,110.594" />
        <path
           inkscape:connector-curvature="0"
           id="path3423"
           style="fill:#ffffff;fill-opacity:1;fill-rule:nonzero;stroke:none"
           d="m 2896.53,677.012 c 26.27,0.465 32.26,5.074 32.26,16.133 l 0,138.242 c 0,13.824 -5.99,22.121 -32.26,22.578 l 0,16.594 86.17,3.683 0,-34.101 c 23.51,18.433 51.61,35.484 81.56,35.484 36.41,0 54.38,-23.5 54.38,-66.355 l 0,-116.125 c 0,-11.059 5.54,-15.668 32.26,-16.133 l 0,-16.586 -113.36,0 0,16.586 c 19.81,0.465 26.26,5.074 26.26,16.133 l 0,102.3 c 0,31.797 -11.05,44.239 -35.47,44.239 -17.52,0 -32.27,-7.375 -44.71,-15.211 l 0,-131.328 c 0,-11.059 6.45,-15.668 25.81,-16.133 l 0,-16.586 -112.9,0 0,16.586" />
        <path
           inkscape:connector-curvature="0"
           id="path3425"
           style="fill:#ffffff;fill-opacity:1;fill-rule:nonzero;stroke:none"
           d="m 3313.13,677.012 c 19.8,0.465 23.5,5.074 23.5,16.133 l 0,102.3 c 0,31.797 -11.99,44.239 -36.41,44.239 -17.05,0 -28.11,-7.375 -40.55,-15.211 l 0,-131.328 c 0,-11.059 3.68,-15.668 23.5,-16.133 l 0,-16.586 -110.6,0 0,16.586 c 26.27,0.465 32.26,5.074 32.26,16.133 l 0,138.242 c 0,13.824 -5.99,22.121 -32.26,22.578 l 0,16.594 86.18,3.683 0,-34.101 c 23.5,18.433 47.93,35.484 77.88,35.484 28.1,0 45.15,-14.746 51.61,-41.012 23.95,22.578 52.07,41.012 81.1,41.012 36.41,0 54.38,-23.5 54.38,-66.355 l 0,-116.125 c 0,-11.059 5.52,-15.668 32.25,-16.133 l 0,-16.586 -111.05,0 0,16.586 c 19.81,0.465 23.96,5.074 23.96,16.133 l 0,102.3 c 0,31.797 -10.14,44.239 -34.56,44.239 -12.91,0 -28.11,-8.297 -43.32,-19.356 0.46,-5.992 0.46,-9.215 0.46,-12.441 l 0,-114.742 c 0,-11.059 4.61,-15.668 25.81,-16.133 l 0,-16.586 -104.14,0 0,16.586" />
        <path
           inkscape:connector-curvature="0"
           id="path3427"
           style="fill:#ffffff;fill-opacity:1;fill-rule:nonzero;stroke:none"
           d="m 3637.1,785.766 82.03,1.382 c 4.61,39.629 -8.29,72.348 -37.79,72.348 -25.34,0 -41.01,-24.422 -44.24,-73.73 z m -58.52,-21.661 c 0,68.204 42.4,113.368 105.99,113.368 64.05,0 94.93,-50.696 91.24,-108.293 l -139.16,0 0,-2.77 c 0,-49.305 22.11,-83.406 65.43,-83.406 24.42,0 45.15,14.746 63.13,37.789 l 11.51,-9.68 c -19.34,-31.332 -46.07,-55.297 -92.15,-55.297 -68.2,0 -105.99,42.399 -105.99,108.289" />
        <path
           inkscape:connector-curvature="0"
           id="path3429"
           style="fill:#ffffff;fill-opacity:1;fill-rule:nonzero;stroke:none"
           d="m 3808.08,677.012 c 26.27,0.465 32.26,5.074 32.26,16.133 l 0,138.242 c 0,13.824 -5.99,22.121 -32.26,22.578 l 0,16.594 86.17,3.683 0,-34.101 c 23.51,18.433 51.61,35.484 81.58,35.484 36.39,0 54.37,-23.5 54.37,-66.355 l 0,-116.125 c 0,-11.059 5.53,-15.668 32.25,-16.133 l 0,-16.586 -113.36,0 0,16.586 c 19.82,0.465 26.27,5.074 26.27,16.133 l 0,102.3 c 0,31.797 -11.06,44.239 -35.48,44.239 -17.51,0 -32.26,-7.375 -44.7,-15.211 l 0,-131.328 c 0,-11.059 6.45,-15.668 25.8,-16.133 l 0,-16.586 -112.9,0 0,16.586" />
        <path
           inkscape:connector-curvature="0"
           id="path3431"
           style="fill:#ffffff;fill-opacity:1;fill-rule:nonzero;stroke:none"
           d="m 4115.46,718.949 0,128.567 -39.62,0 0,17.515 40.55,8.289 0,57.602 53.91,17.976 0,-76.496 67.74,0 0,-23.964 -67.74,0 0,-126.723 c 0,-23.043 9.22,-35.024 26.73,-35.024 12.9,0 24.42,10.598 34.56,27.649 l 13.36,-8.754 c -16.13,-32.719 -37.33,-48.848 -70.5,-48.848 -34.56,0 -58.99,17.973 -58.99,62.211" />
        <path
           inkscape:connector-curvature="0"
           id="path3433"
           style="fill:#ffffff;fill-opacity:1;fill-rule:nonzero;stroke:none"
           d="m 4394.26,708.809 0,59.449 c -53.45,-8.754 -69.58,-18.899 -69.58,-47.008 0,-20.273 11.07,-34.559 31.8,-34.559 15.67,0 29.49,10.598 37.78,22.118 z m -128.56,0.464 c 0,18.43 9.68,38.707 29.03,49.305 33.63,18.434 86.63,21.199 99.53,26.731 l 0,20.738 c 0,39.629 -12.44,51.609 -38.71,51.609 -10.59,0 -18.43,-2.769 -24.41,-7.371 3.22,-6.918 5.98,-14.289 5.98,-22.586 0,-17.051 -11.98,-29.949 -31.79,-29.949 -19.36,0 -29.95,12.441 -29.95,29.492 0,27.645 36.4,48.383 93.08,48.383 54.38,0 79.72,-24.883 79.72,-74.187 l 0,-94.469 c 0,-22.582 5.07,-27.188 32.72,-22.582 l 4.14,-12.903 c -17.05,-9.218 -31.32,-14.285 -48.37,-14.285 -28.12,0 -34.11,10.598 -39.63,32.719 l -1.86,0 c -18.43,-19.355 -42.38,-33.637 -69.12,-33.637 -42.38,0 -60.36,27.188 -60.36,52.992" />
        <path
           inkscape:connector-curvature="0"
           id="path3435"
           style="fill:#ffffff;fill-opacity:1;fill-rule:nonzero;stroke:none"
           d="m 4493.81,677.012 c 26.26,0.465 32.25,5.074 32.25,16.133 l 0,245.617 c 0,13.82 -6.91,22.117 -34.1,22.578 l 0,16.586 88.94,3.687 0,-288.468 c 0,-11.059 5.53,-15.668 32.26,-16.133 l 0,-16.586 -119.35,0 0,16.586" />
        <path
           inkscape:connector-curvature="0"
           id="path3437"
           style="fill:#ffffff;fill-opacity:1;fill-rule:nonzero;stroke:none"
           d="m 4735.28,755.352 19.82,0 c 23.5,-52.071 54.84,-82.485 93.09,-82.485 40.09,0 56.68,27.188 56.68,51.61 0,31.796 -20.28,43.781 -73.28,61.289 -46.54,14.746 -92.62,32.722 -92.62,89.402 0,58.059 43.78,95.848 105.53,95.848 24.42,0 46.54,-5.993 60.82,-12.442 l 13.83,14.746 16.59,0 0,-92.164 -19.36,0 c -18.43,43.317 -44.7,70.043 -78.33,70.043 -28.11,0 -48.85,-18.429 -48.85,-48.386 0,-31.333 22.58,-41.473 73.27,-57.602 42.4,-13.824 87.55,-31.793 87.55,-88.938 0,-51.152 -30.41,-103.222 -108.29,-103.222 -24.89,0 -53.45,5.07 -71.42,13.824 l -17.51,-15.664 -17.52,0 0,104.141" />
        <path
           inkscape:connector-curvature="0"
           id="path3439"
           style="fill:#ffffff;fill-opacity:1;fill-rule:nonzero;stroke:none"
           d="m 4985.04,764.105 c 0,68.665 47.02,113.368 109.68,113.368 58.07,0 80.65,-29.493 80.65,-53 0,-18.891 -11.07,-32.715 -29.5,-32.715 -20.73,0 -31.33,11.984 -31.33,28.109 0,11.52 7.83,22.121 13.82,25.809 -4.61,7.371 -16.59,14.281 -31.79,14.281 -31.8,0 -53.46,-28.57 -53.46,-88.477 0,-51.148 22.58,-86.171 67.29,-86.171 23.49,0 43.31,12.441 58.98,31.796 l 11.51,-9.679 c -20.27,-30.871 -47,-51.61 -90.32,-51.61 -65.43,0 -105.53,43.317 -105.53,108.289" />
        <path
           inkscape:connector-curvature="0"
           id="path3441"
           style="fill:#ffffff;fill-opacity:1;fill-rule:nonzero;stroke:none"
           d="m 5230.68,949.355 c 0,20.739 13.37,35.024 33.64,35.024 20.27,0 33.63,-13.363 33.63,-33.641 0,-20.738 -13.36,-34.562 -33.63,-34.562 -20.27,0 -33.64,12.441 -33.64,33.179 z m -26.26,-272.343 c 26.26,0.465 33.17,5.074 33.17,16.133 l 0,138.242 c 0,13.824 -6.45,22.121 -33.17,22.578 l 0,16.594 88.01,3.683 0,-181.097 c 0,-11.059 5.52,-15.668 32.25,-16.133 l 0,-16.586 -120.26,0 0,16.586" />
        <path
           inkscape:connector-curvature="0"
           id="path3443"
           style="fill:#ffffff;fill-opacity:1;fill-rule:nonzero;stroke:none"
           d="m 5409.48,785.766 82.03,1.382 c 4.61,39.629 -8.3,72.348 -37.79,72.348 -25.35,0 -41.02,-24.422 -44.24,-73.73 z m -58.52,-21.661 c 0,68.204 42.39,113.368 105.98,113.368 64.06,0 94.94,-50.696 91.25,-108.293 l -139.17,0 0,-2.77 c 0,-49.305 22.12,-83.406 65.44,-83.406 24.42,0 45.15,14.746 63.12,37.789 l 11.53,-9.68 c -19.36,-31.332 -46.08,-55.297 -92.17,-55.297 -68.19,0 -105.98,42.399 -105.98,108.289" />
        <path
           inkscape:connector-curvature="0"
           id="path3445"
           style="fill:#ffffff;fill-opacity:1;fill-rule:nonzero;stroke:none"
           d="m 5580.45,677.012 c 26.27,0.465 32.27,5.074 32.27,16.133 l 0,138.242 c 0,13.824 -6,22.121 -32.27,22.578 l 0,16.594 86.19,3.683 0,-34.101 c 23.5,18.433 51.61,35.484 81.56,35.484 36.4,0 54.37,-23.5 54.37,-66.355 l 0,-116.125 c 0,-11.059 5.54,-15.668 32.26,-16.133 l 0,-16.586 -113.36,0 0,16.586 c 19.81,0.465 26.27,5.074 26.27,16.133 l 0,102.3 c 0,31.797 -11.07,44.239 -35.49,44.239 -17.51,0 -32.25,-7.375 -44.7,-15.211 l 0,-131.328 c 0,-11.059 6.46,-15.668 25.81,-16.133 l 0,-16.586 -112.91,0 0,16.586" />
        <path
           inkscape:connector-curvature="0"
           id="path3447"
           style="fill:#ffffff;fill-opacity:1;fill-rule:nonzero;stroke:none"
           d="m 5857.43,764.105 c 0,68.665 47,113.368 109.66,113.368 58.07,0 80.65,-29.493 80.65,-53 0,-18.891 -11.06,-32.715 -29.49,-32.715 -20.74,0 -31.33,11.984 -31.33,28.109 0,11.52 7.83,22.121 13.83,25.809 -4.61,7.371 -16.6,14.281 -31.8,14.281 -31.8,0 -53.46,-28.57 -53.46,-88.477 0,-51.148 22.58,-86.171 67.28,-86.171 23.5,0 43.31,12.441 58.98,31.796 l 11.53,-9.679 c -20.29,-30.871 -47.01,-51.61 -90.33,-51.61 -65.43,0 -105.52,43.317 -105.52,108.289" />
        <path
           inkscape:connector-curvature="0"
           id="path3449"
           style="fill:#ffffff;fill-opacity:1;fill-rule:nonzero;stroke:none"
           d="m 6137.15,785.766 82.02,1.382 c 4.61,39.629 -8.29,72.348 -37.78,72.348 -25.35,0 -41.01,-24.422 -44.24,-73.73 z m -58.52,-21.661 c 0,68.204 42.39,113.368 105.98,113.368 64.06,0 94.94,-50.696 91.25,-108.293 l -139.18,0 0,-2.77 c 0,-49.305 22.13,-83.406 65.45,-83.406 24.42,0 45.16,14.746 63.13,37.789 l 11.52,-9.68 c -19.35,-31.332 -46.08,-55.297 -92.17,-55.297 -68.2,0 -105.98,42.399 -105.98,108.289" />
        <path
           inkscape:connector-curvature="0"
           id="path3451"
           style="fill:#ffffff;fill-opacity:1;fill-rule:nonzero;stroke:none"
           d="m 6315.5,729.547 17.51,0 c 20.28,-34.098 46.55,-53.918 70.97,-53.918 23.96,0 35.03,12.906 35.03,28.574 0,19.817 -15.22,29.031 -56.23,41.012 -47.92,13.824 -66.35,29.492 -66.35,61.289 0,42.394 33.63,70.504 82.95,70.504 15.66,0 35.02,-5.992 45.16,-12.903 l 10.13,12.903 16.58,0 0,-64.977 -17.96,0 c -17.97,27.653 -36.87,46.086 -58.99,46.086 -19.35,0 -33.17,-11.523 -33.17,-28.57 0,-18.899 17.04,-26.27 49.76,-35.024 47.47,-12.445 70.97,-29.492 70.97,-64.976 0,-41.012 -31.34,-72.809 -81.56,-72.809 -17.05,0 -41.94,6.914 -53.92,14.289 l -13.83,-14.289 -17.05,0 0,72.809" />
        <path
           inkscape:connector-curvature="0"
           id="path3453"
           style="fill:#ffffff;fill-opacity:1;fill-rule:nonzero;stroke:none"
           d="m 5044.24,310.109 c 0,-56.91 -24.53,-90.347 -62.48,-90.347 -42.92,0 -74.07,41.527 -74.07,103.347 0,55.719 26.67,91.289 64.85,91.289 l 0.23,0 c 43.41,0 71.47,-38.91 71.47,-104.289 z m -64.61,126.621 -0.24,0 c -84.98,0 -129.45,-60.25 -129.45,-119.769 0,-68.27 53.72,-119.762 124.96,-119.762 73.64,0 127.09,51.563 127.09,122.602 0,66.66 -52.6,116.929 -122.36,116.929" />
        <path
           inkscape:connector-curvature="0"
           id="path3455"
           style="fill:#ffffff;fill-opacity:1;fill-rule:nonzero;stroke:none"
           d="m 3928.66,310.109 c 0,-56.91 -24.53,-93.679 -62.48,-93.679 -42.92,0 -74.07,44.859 -74.07,106.679 0,55.719 26.67,94.629 64.85,94.629 l 0.24,0 c 43.41,0 71.46,-42.25 71.46,-107.629 z m -64.61,126.621 -0.24,0 c -84.98,0 -129.45,-60.25 -129.45,-119.769 0,-68.27 53.72,-119.762 124.96,-119.762 73.64,0 127.09,51.563 127.09,122.602 0,66.66 -52.6,116.929 -122.36,116.929" />
        <path
           inkscape:connector-curvature="0"
           id="path3457"
           style="fill:#ffffff;fill-opacity:1;fill-rule:nonzero;stroke:none"
           d="m 4566.31,297.441 0,-87.351 -9.11,-2.039 c -21.41,-4.84 -48.06,-10.852 -72.83,-10.852 -85.1,0 -140.09,46.18 -140.09,117.641 0,83.75 72.55,121.89 139.95,121.89 30.46,0 74.44,-12.101 74.44,-12.101 l 0,-54.617 c 0,0 -21.13,44.347 -72.79,44.347 -34.68,0 -66.02,-20.257 -77.99,-55.379 -3.98,-12.289 -6.09,-25.519 -6.09,-38.23 0,-72.391 43.25,-101.461 86.12,-101.461 6.41,0 15.03,1.039 19.99,3.981 4.97,3.07 7.51,9.082 7.51,17.851 l 0,48.27 c 0,29.769 -21.48,38.57 -21.48,38.57 l 87.92,0 c 0,0 -15.55,-3.883 -15.55,-30.52" />
        <path
           inkscape:connector-curvature="0"
           id="path3459"
           style="fill:#ffffff;fill-opacity:1;fill-rule:nonzero;stroke:none"
           d="m 5596.89,297.441 0,-87.351 -9.11,-2.039 c -21.42,-4.84 -48.07,-10.852 -72.83,-10.852 -85.1,0 -140.09,46.18 -140.09,117.641 0,83.75 72.55,121.89 139.95,121.89 30.46,0 74.44,-12.101 74.44,-12.101 l 0,-54.617 c 0,0 -21.13,44.347 -72.8,44.347 -34.67,0 -66.01,-20.257 -77.98,-55.379 -3.98,-12.289 -6.09,-25.519 -6.09,-38.23 0,-72.391 43.25,-101.461 86.12,-101.461 6.41,0 15.03,1.039 19.99,3.981 4.97,3.07 7.5,9.082 7.5,17.851 l 0,48.27 c 0,29.769 -21.47,38.57 -21.47,38.57 l 87.92,0 c 0,0 -15.55,-3.883 -15.55,-30.52" />
        <path
           inkscape:connector-curvature="0"
           id="path3461"
           style="fill:#ffffff;fill-opacity:1;fill-rule:nonzero;stroke:none"
           d="m 2278.57,431.531 c 13.73,-5.742 10.61,-23.711 4.97,-37.883 -2.8,-7.816 -34.72,-84.308 -49.46,-119.66 -5.51,15.223 -41.42,116.231 -43.32,121.672 -4.58,12.899 -4.18,22.57 7.2,35.871 l -91.9,0 c 19.62,-12.16 24.91,-23.761 36.18,-53.14 19.04,-49.11 45.29,-119.012 66.03,-174.422 l 0.5,-1.328 24.32,0 72.8,176.898 c 7.99,19.742 22.27,43.551 38.73,51.992 l -66.05,0" />
        <path
           inkscape:connector-curvature="0"
           id="path3463"
           style="fill:#ffffff;fill-opacity:1;fill-rule:nonzero;stroke:none"
           d="m 2515.83,238 c -11.65,-13.18 -42.41,-12.328 -46.85,-12.328 -15.03,0 -23.21,0.469 -29.02,3.148 -6.17,2.59 -7.26,10.68 -7.26,26.719 l 0,49.891 28.15,0 c 25.43,0 42.83,-1.418 47.96,-13.782 l 0,53.422 c -4.85,-12.289 -21.47,-14.468 -47.96,-14.468 l -28.15,0 0,73.507 c 0,2.551 2.07,4.621 4.62,4.621 l 41.94,0 c 20.82,0 31.04,-3.468 39.55,-13.941 8.51,-10.461 13.99,-26.23 13.99,-26.23 l 0,62.972 -170.88,0 c 5.38,-3.59 19.41,-16.351 19.41,-51.801 l -0.05,-124.089 c 0,-43.852 -21.43,-53 -21.43,-53 l 177.13,0 0,67.429 c 0,0 -9.5,-18.898 -21.15,-32.07" />
        <path
           inkscape:connector-curvature="0"
           id="path3465"
           style="fill:#ffffff;fill-opacity:1;fill-rule:nonzero;stroke:none"
           d="m 4734.99,225.672 c -15.04,0 -23.21,0.469 -29.03,3.148 -6.17,2.59 -7.25,10.68 -7.25,26.719 l 0,49.891 28.15,0 c 25.42,0 42.83,-1.418 47.96,-13.782 l 0,53.422 c -4.86,-12.289 -21.47,-14.468 -47.96,-14.468 l -28.15,0 0,68.117 c 0,10.011 0,10.011 12.6,10.011 l 33.95,0 c 20.82,0 31.04,-3.468 39.55,-13.941 8.52,-10.461 14,-26.23 14,-26.23 l 0,62.972 -172.55,0 c 5.38,-3.59 19.41,-16.351 19.41,-51.801 l -0.05,-124.089 c 0,-43.852 -21.43,-53 -21.43,-53 l 178.8,0 0,67.429 c 0,0 -9.5,-18.898 -21.15,-32.07 -11.66,-13.18 -42.42,-12.328 -46.85,-12.328" />
        <path
           inkscape:connector-curvature="0"
           id="path3467"
           style="fill:#ffffff;fill-opacity:1;fill-rule:nonzero;stroke:none"
           d="m 5748.11,202.641 c 0,0 -21.43,9.148 -21.43,53 l -0.05,124.089 c 0,35.45 14.03,48.211 19.41,51.801 l -89.2,0 c 5.38,-3.59 19.41,-16.351 19.41,-51.801 l -0.05,-124.089 c 0,-43.852 -21.43,-53 -21.43,-53 l 93.34,0" />
        <path
           inkscape:connector-curvature="0"
           id="path3469"
           style="fill:#ffffff;fill-opacity:1;fill-rule:nonzero;stroke:none"
           d="m 1953.56,202.641 c 0,0 -21.43,9.148 -21.43,53 l -0.05,124.089 c 0,35.45 14.03,48.211 19.41,51.801 l -64.03,0 c 5.38,-3.59 19.41,-16.351 19.41,-51.801 l -0.04,-92.992 -127.3,144.793 -55.96,0 c 5.37,-3.59 19.4,-16.351 19.4,-51.801 l -0.05,-124.089 c 0,-43.852 -21.43,-53 -21.43,-53 l 68.5,0 c 0,0 -21.43,9.148 -21.43,53 l -0.04,109.019 135.71,-162.019 49.33,0" />
        <path
           inkscape:connector-curvature="0"
           id="path3471"
           style="fill:#ffffff;fill-opacity:1;fill-rule:nonzero;stroke:none"
           d="m 3124.14,202.641 c 0,0 -21.42,9.148 -21.42,53 l -0.06,124.089 c 0,35.45 14.03,48.211 19.41,51.801 l -88.19,0 c 5.37,-3.59 19.4,-16.351 19.4,-51.801 l -0.05,-124.089 c 0,-43.852 -21.43,-53 -21.43,-53 l 92.34,0" />
        <path
           inkscape:connector-curvature="0"
           id="path3473"
           style="fill:#ffffff;fill-opacity:1;fill-rule:nonzero;stroke:none"
           d="m 2088.33,202.641 c 0,0 -21.43,9.148 -21.43,53 l -0.05,124.089 c 0,35.45 14.03,48.211 19.41,51.801 l -88.53,0 c 5.38,-3.59 19.4,-16.351 19.4,-51.801 l -0.05,-124.089 c 0,-43.852 -21.43,-53 -21.43,-53 l 92.68,0" />
        <path
           inkscape:connector-curvature="0"
           id="path3475"
           style="fill:#ffffff;fill-opacity:1;fill-rule:nonzero;stroke:none"
           d="m 5851.78,291.219 c 13.84,33.48 29.45,70.941 29.45,70.941 0,0 13.5,-37.281 25.68,-70.941 l -55.13,0 z m 158.85,-88.578 c -19.61,12.148 -24.91,23.757 -36.18,53.14 -19.04,49.11 -45.29,119.008 -66.03,174.418 l -0.49,1.332 -27.66,0 -72.8,-176.902 c -7.99,-19.738 -22.27,-43.559 -38.73,-51.988 l 67.38,0 c -13.72,5.73 -10.6,23.711 -4.97,37.879 0.99,2.742 4.83,12.261 9.98,24.82 l 75.14,0 c 5.22,-14.449 9.08,-25.16 9.66,-26.828 4.59,-12.903 4.18,-22.582 -7.19,-35.871 l 91.89,0" />
        <path
           inkscape:connector-curvature="0"
           id="path3477"
           style="fill:#ffffff;fill-opacity:1;fill-rule:nonzero;stroke:none"
           d="m 2918.13,343.68 c -32.64,15.332 -43.96,24.351 -44.63,43.511 -0.55,15.731 10.11,30.739 33.5,30.739 34.42,0 52.3,-18.981 62.57,-39.969 l -0.08,49 c -5.81,1.918 -35.02,9.348 -58.74,9.348 -49.83,0 -83.29,-29.258 -83.29,-68.329 0,-38.558 30.51,-55.14 68.52,-73.351 27.3,-13.41 42.46,-22.34 42.46,-42.949 0,-19.239 -10.94,-34.039 -33.96,-34.039 -37.73,0 -64.84,34.757 -73.51,57.109 l 1.15,-58.281 c 4.22,-2.149 20.81,-10.43 32.53,-13.508 10.41,-2.731 22.54,-5.27 34.98,-5.27 50.02,0 88.27,24.489 88.27,71.2 0,34.757 -31.3,57.058 -69.77,74.789" />
        <path
           inkscape:connector-curvature="0"
           id="path3479"
           style="fill:#ffffff;fill-opacity:1;fill-rule:nonzero;stroke:none"
           d="m 4121.73,202.641 c 0,0 -21.42,9.148 -21.42,53 l 0,48.789 28.15,0 c 25.42,0 42.83,-1.43 47.96,-13.782 l 0,54.422 c -4.86,-12.289 -21.47,-14.468 -47.96,-14.468 l -28.15,0 0,68.789 c 0,10.007 0,10.007 12.6,10.007 l 33.95,0 c 20.82,0 31.04,-3.468 39.55,-13.937 8.52,-10.473 14,-26.231 14,-26.231 l 0,62.301 -171.55,0 c 5.38,-3.59 19.41,-16.351 19.41,-51.801 l -0.05,-124.089 c 0,-43.852 -21.43,-53 -21.43,-53 l 94.94,0" />
        <path
           inkscape:connector-curvature="0"
           id="path3481"
           style="fill:#ffffff;fill-opacity:1;fill-rule:nonzero;stroke:none"
           d="m 3285.85,398.719 c 0,10.011 0,10.011 12.6,10.011 l 10.73,0 c 20.82,0 31.04,-3.468 39.55,-13.941 8.52,-10.461 14,-26.23 14,-26.23 l 0,62.972 -205.19,0 0,-62.972 c 0,0 5.48,15.769 14,26.23 8.51,10.473 18.73,13.941 39.55,13.941 l 10.73,0 c 12.6,0 12.6,0 12.6,-10.011 l 0,-143.078 c 0,-43.852 -21.42,-53 -21.42,-53 l 94.27,0 c 0,0 -21.42,9.148 -21.42,53 l 0,143.078" />
        <path
           inkscape:connector-curvature="0"
           id="path3483"
           style="fill:#ffffff;fill-opacity:1;fill-rule:nonzero;stroke:none"
           d="m 1641.88,305.051 0.05,74.679 c 0,35.45 -14.03,48.211 -19.41,51.801 l 66.18,0 c -5.38,-3.59 -19.4,-16.351 -19.4,-51.801 l 0.05,-73.519 c 0,0 10.29,-107.34 -88.5,-109.063 0,0 -102.19,-5.609 -102.19,80.473 l 0.05,102.109 c 0,35.45 -14.03,48.211 -19.41,51.801 l 88.53,0 c -5.38,-3.59 -19.4,-16.351 -19.4,-51.801 l 0.05,-86.859 c 0,-72.922 55.27,-71.109 55.27,-71.109 0,0 58.13,-10.793 58.13,83.289" />
        <path
           inkscape:connector-curvature="0"
           id="path3485"
           style="fill:#ffffff;fill-opacity:1;fill-rule:nonzero;stroke:none"
           d="m 3518.7,431.039 c 0,0 26.8,-14.238 16.97,-35.219 l -33.89,-66.691 -35.66,64.793 c -12.52,23.066 10.54,37.117 10.54,37.117 l -98.08,0 c 0,0 20.9,-11.078 37.16,-38.707 l 50.87,-87.32 0,-49.371 c 0,-43.852 -21.43,-53 -21.43,-53 l 92.95,0 c 0,0 -21.43,9.148 -21.43,53 l 0,52.058 42.72,80.039 c 16.14,31.184 43.77,43.301 43.77,43.301 l -84.49,0" />
        <path
           inkscape:connector-curvature="0"
           id="path3487"
           style="fill:#ffffff;fill-opacity:1;fill-rule:nonzero;stroke:none"
           d="m 2761.63,254.078 c -10.1,16.613 -25.46,41.434 -33.05,55.461 16.29,6.793 41.11,22.59 41.11,55.77 l 0,0.062 c 0.12,1.629 0.2,3.289 0.2,5.02 0,20.007 -8.63,36.98 -24.34,47.789 -14.49,9.73 -32.25,13.351 -65.51,13.351 l -90.36,0 c 5.39,-3.59 19.43,-16.351 19.43,-51.801 l -0.05,-124.089 c 0,-43.852 -21.45,-53 -21.45,-53 l 92.74,0 c 0,0 -21.46,9.148 -21.46,53 l 0,43.437 7.05,0 c 10.45,0 16.45,-3.629 22.12,-13.367 3.52,-6.242 6.91,-12.481 10.21,-18.551 6.47,-11.922 14.82,-27.808 20.91,-37.129 14.4,-21.972 26.01,-31.519 70.14,-30.109 0,0 7.52,0.269 13.26,0.758 0,0 -15.12,10.968 -40.95,53.398 z m -45.3,111.344 c 0,-17.57 -5.19,-30.211 -16.33,-39.813 l -0.02,-0.007 c -6.67,-5.864 -17.92,-8.711 -34.38,-8.711 l -6.71,0 0,82.339 c 0,6.532 0.68,9.68 2.33,11.168 2.7,2.211 7.83,3.321 15.27,3.321 19.26,0 39.84,-12.688 39.84,-48.297" />
        <path
           inkscape:connector-curvature="0"
           id="path3489"
           style="fill:#ffffff;fill-opacity:1;fill-rule:nonzero;stroke:none"
           d="m 5316.39,254.078 c -10.1,16.613 -25.46,41.434 -33.05,55.461 16.29,6.793 41.11,22.59 41.11,55.77 l 0,0.062 c 0.12,1.629 0.2,3.289 0.2,5.02 0,20.007 -8.63,36.98 -24.34,47.789 -14.49,9.73 -32.25,13.351 -65.51,13.351 l -90.36,0 c 5.39,-3.59 19.43,-16.351 19.43,-51.801 l -0.05,-124.089 c 0,-43.852 -21.45,-53 -21.45,-53 l 92.74,0 c 0,0 -21.46,9.148 -21.46,53 l 0,43.437 7.05,0 c 10.45,0 16.45,-3.629 22.12,-13.367 3.52,-6.242 6.91,-12.481 10.21,-18.551 6.47,-11.922 14.82,-27.808 20.91,-37.129 14.4,-21.972 26.01,-31.519 70.14,-30.109 0,0 7.52,0.269 13.26,0.758 0,0 -15.13,10.968 -40.95,53.398 z m -45.3,111.344 c 0,-17.57 -5.19,-30.211 -16.33,-39.813 l -0.02,-0.007 c -6.67,-5.864 -17.92,-8.711 -34.38,-8.711 l -6.71,0 0,82.339 c 0,6.532 0.68,9.68 2.33,11.168 2.69,2.211 7.83,3.321 15.27,3.321 19.26,0 39.84,-12.688 39.84,-48.297" />
        <path
           inkscape:connector-curvature="0"
           id="path3491"
           style="fill:#ffffff;fill-opacity:1;fill-rule:nonzero;stroke:none"
           d="m 1081.88,522.18 -98.36,0 0,-0.039 -36.829,-34.942 0,122.602 c -0.003,1.859 -1.043,3.57 -2.695,4.429 -9.738,5.032 -15.781,14.969 -15.781,25.93 l -0.004,475.88 c 0.523,10.52 8.402,19.17 18.73,20.59 2.469,0.32 4.317,2.43 4.317,4.93 l 0,49.6 c 0,2.76 -2.235,4.99 -4.988,4.99 l -35.774,0 c -13.723,79.17 -54.805,151.88 -115.766,204.83 -63.777,55.4 -145.484,85.91 -230.062,85.91 -84.586,0 -166.289,-30.51 -230.066,-85.91 -60.95,-52.95 -102.032,-125.66 -115.758,-204.83 l -35.781,0 c -2.754,0 -4.989,-2.23 -4.989,-4.99 l 0,-49.62 c 0,-2.49 1.832,-4.6 4.293,-4.94 10.649,-1.5 18.68,-10.73 18.68,-21.47 l 0,-474.97 c 0,-10.93 -6.024,-20.859 -15.715,-25.898 -1.652,-0.852 -2.691,-2.563 -2.691,-4.422 l 0,-87.66 -131.4965,0 0,1072.68 1030.7355,0 0,-1072.68 z m -800.61,614.43 233.718,0.02 c 10.739,-1.44 18.836,-10.68 18.836,-21.5 l 0,-474.97 c 0,-10.93 -6.019,-20.859 -15.711,-25.898 -1.648,-0.852 -2.687,-2.563 -2.687,-4.422 l 0,-87.66 -197.469,0 -36.836,-34.93 0,122.551 c 0,1.859 -1.035,3.57 -2.699,4.429 -9.731,5.032 -15.774,14.969 -15.774,25.93 l -0.003,475.88 c 0.523,10.54 8.421,19.2 18.625,20.57 z m -10.711,59.54 c 13.109,64.21 47.644,123.28 97.367,166.47 54.547,47.37 124.418,73.45 196.742,73.45 72.32,0 142.191,-26.08 196.738,-73.45 49.723,-43.19 84.254,-102.26 97.371,-166.47 l -588.218,0 z M 611.207,614.23 c -9.73,5.032 -15.773,14.969 -15.773,25.93 l -0.008,475.88 c 0.523,10.54 8.426,19.2 18.625,20.57 l 233.719,0.02 c 10.742,-1.44 18.835,-10.68 18.835,-21.5 l 0,-474.97 c 0,-10.93 -6.019,-20.859 -15.714,-25.898 -1.645,-0.852 -2.684,-2.563 -2.684,-4.422 l 0,-87.66 -197.469,0 -36.832,-34.93 0,122.551 c 0,1.859 -1.039,3.57 -2.699,4.429 z M 1081.88,439.379 C 1081.88,327.039 996.453,243.34 924.797,192.91 831.273,127.09 701.105,75.9219 566.512,51.9219 431.918,75.9219 301.746,127.09 208.223,192.91 136.563,243.34 51.1445,327.039 51.1445,439.379 l 0,27.293 131.4965,0 0,-96.91 c 0,-2.762 2.234,-4.992 4.988,-4.992 l 88.504,0 c 2.758,0 4.988,2.23 4.988,4.992 l 0,96.91 234.305,0 0,-96.91 c 0,-2.762 2.23,-4.992 4.988,-4.992 l 88.504,0 c 2.758,0 4.988,2.23 4.988,4.992 l 0,96.91 234.301,0 0,-96.91 c 0,-2.762 2.231,-4.992 4.988,-4.992 l 88.504,0 c 2.758,0 4.992,2.23 4.992,4.992 l 0,96.91 135.189,0 0,-27.293 z M 0,1646 0,439.379 C 0,209.199 287.934,47.2383 566.512,0 845.086,47.2383 1133.02,209.199 1133.02,439.379 L 1133.02,1646 0,1646" />
        <path
           inkscape:connector-curvature="0"
           id="path3493"
           style="fill:#ffffff;fill-opacity:1;fill-rule:nonzero;stroke:none"
           d="m 409.5,190.398 0,94.911 -50.156,-3.457 0,-6.563 c 0.41,0.012 0.808,0.012 1.199,0.012 8.348,0 13.395,-1.281 16.258,-4.082 2.312,-2.258 3.293,-5.481 3.293,-10.758 l 0,-70.063 c 0,-6.457 -6.406,-7.91 -19.864,-8.418 l 0,-6.718 69.313,0 0,6.718 c -13.582,0.508 -20.043,1.961 -20.043,8.418" />
        <path
           inkscape:connector-curvature="0"
           id="path3495"
           style="fill:#ffffff;fill-opacity:1;fill-rule:nonzero;stroke:none"
           d="m 467.203,244.781 c 3.184,13.168 6.656,17.02 22.5,17.02 l 39.738,0 -0.738,-1.012 -58.933,-81.059 0,-6.07 22.906,0 22.344,44.879 30.972,54.852 0,11.609 -84.039,0 -1.039,-40.219 6.289,0" />
        <path
           inkscape:connector-curvature="0"
           id="path3497"
           style="fill:#ffffff;fill-opacity:1;fill-rule:nonzero;stroke:none"
           d="m 618.223,179.66 c -14.528,0 -23.52,11.93 -23.52,22.981 0,7.269 2.481,13.328 7.801,19.058 l 0.309,0.34 0.417,-0.199 c 1.723,-0.781 3.774,-1.5 5.938,-2.09 20.918,-6.91 28.312,-12.871 28.312,-22.781 0,-10.52 -7.558,-17.309 -19.257,-17.309 z m -2.66,100.762 c 12.886,0 21.207,-7.41 21.207,-18.902 0,-8.059 -2.485,-14.282 -8.321,-20.821 l -0.289,-0.328 -0.406,0.149 c -14.477,5.3 -28.609,11.57 -28.609,24.55 0,10.078 8.257,15.352 16.418,15.352 z m 19.921,-42.813 1.485,0.571 c 14.433,5.429 21.758,13.289 21.758,23.34 0,12.671 -12.735,26.32 -40.684,26.32 -26.004,0 -42.813,-13.469 -42.813,-34.301 0,-10.867 6.165,-19.93 18.305,-26.93 l 1.149,-0.66 -1.231,-0.488 c -14.324,-5.66 -21.594,-14.109 -21.594,-25.121 0,-17.86 16.965,-28.102 46.539,-28.102 25.008,0 43.875,14.832 43.875,34.481 0,13.07 -8.285,22.972 -25.328,30.269 l -1.461,0.621" />
        <path
           inkscape:connector-curvature="0"
           id="path3499"
           style="fill:#ffffff;fill-opacity:1;fill-rule:nonzero;stroke:none"
           d="m 740.406,241.551 c -10.043,0 -17.816,-1.571 -25.98,-5.262 l -0.957,-0.43 0.054,1.039 1.278,25.793 60.488,0 1.68,22.309 -72.477,0 -2.273,-54.75 5.449,-4.32 c 7.926,4.308 14.492,6.789 24.23,6.789 14.723,0 23.165,-9.278 23.165,-25.469 0,-18.07 -7.739,-27.23 -22.989,-27.23 -5.277,0 -12.937,1.902 -15.457,3.851 l -0.812,0.617 0.91,0.461 c 4.051,2.031 8.16,7.301 8.16,13.43 0,7.281 -4.355,14.621 -14.078,14.621 -9.375,0 -15.684,-6.09 -15.684,-15.148 0,-15.813 16.27,-25.25 43.524,-25.25 30.023,0 43.703,18.789 43.703,36.25 0,24.109 -21.66,32.699 -41.934,32.699" />
        <path
           inkscape:connector-curvature="0"
           id="path3501"
           style="fill:#ffffff;fill-opacity:1;fill-rule:nonzero;stroke:none"
           d="m 1082.62,173.66 10.04,0 10.99,-17.64 10.99,17.64 9.77,0 0,-41.789 -8.95,0 0,28.219 -11.54,-18.309 -0.81,0 -11.53,18.309 0,-28.219 -8.96,0 0,41.789 z m -30.8,-8.422 -12.48,0 0,8.422 34.47,0 0,-8.422 -12.49,0 0,-33.367 -9.5,0 0,33.367" />
      </g>
    </g>
  </g>
</svg>
